<svg width="96" height="96" viewBox="0 0 96 96" fill="none" xmlns="http://www.w3.org/2000/svg">
  <rect width="96" height="96" rx="22" fill="#101317"/>
  <path d="M48 17C65.1 17 79 30.9 79 48C79 65.1 65.1 79 48 79C30.9 79 17 65.1 17 48C17 30.9 30.9 17 48 17Z" stroke="#2A3036" stroke-width="5"/>
  <path d="M48 17C61.4 17 72.9 25.5 77.2 37.4" stroke="#C9C1AD" stroke-width="5" stroke-linecap="round"/>
  <circle cx="48" cy="30" r="8" fill="#8FA386"/>
  <circle cx="31" cy="59" r="8" fill="#8FA386"/>
  <circle cx="65" cy="59" r="8" fill="#8FA386"/>
  <path d="M48 38V48L36.5 55" stroke="#E8E2D6" stroke-width="5" stroke-linecap="round" stroke-linejoin="round"/>
  <path d="M48 48L59.5 55" stroke="#E8E2D6" stroke-width="5" stroke-linecap="round" stroke-linejoin="round"/>
  <path d="M39.5 59H56.5" stroke="#E8E2D6" stroke-width="5" stroke-linecap="round"/>
</svg>
